<svg width="145" height="44" viewBox="0 0 145 44" fill="none" xmlns="http://www.w3.org/2000/svg">
<path d="M144.2 21.5C144.2 33.3741 134.35 43 122.2 43C110.05 43 100.2 33.3741 100.2 21.5C100.2 9.62588 110.05 0 122.2 0C134.35 0 144.2 9.62588 144.2 21.5Z" fill="white"/>
<path d="M0 22.5C0 10.6259 9.62588 1 21.5 1H81.6338C84.9608 1 88.0418 2.75295 89.7416 5.61305L93.1939 11.4219C95.495 15.2937 101.162 15.1052 103.201 11.089V11.089C103.4 10.6976 103.643 10.3305 103.925 9.99476L107.309 5.97736C109.966 2.82153 113.881 1 118.007 1H127.793C134.138 1 138.126 7.84157 135 13.3625V13.3625L118.513 34.8574C115.082 39.3299 108.265 39.0832 105.167 34.3744V34.3744C101.621 28.9851 93.5263 29.6177 90.8606 35.4923L89.6218 38.2221C88.0253 41.7405 84.5187 44 80.6551 44H21.5C9.62588 44 0 34.3741 0 22.5V22.5Z" fill="white"/>
<path d="M141 21.5C141 31.7173 132.493 40 122 40C111.507 40 103 31.7173 103 21.5C103 11.2827 111.507 3 122 3C132.493 3 141 11.2827 141 21.5Z" fill="#200F33"/>
<path d="M117 26L127 16" stroke="white" stroke-width="2" stroke-linecap="round" stroke-linejoin="round"/>
<path d="M117 16H127V26" stroke="white" stroke-width="2" stroke-linecap="round" stroke-linejoin="round"/>
</svg>
