<svg width="252" height="72" viewBox="0 0 252 72" fill="none" xmlns="http://www.w3.org/2000/svg">
<rect width="252" height="72" fill="#F8F8F8"/>
<path d="M37.3 57.5V72H28.6C22.4 72 17.5667 70.5 14.1 67.5C10.6333 64.4333 8.9 59.4667 8.9 52.6V30.4H2.1V16.2H8.9V2.6H26V16.2H37.2V30.4H26V52.8C26 54.4667 26.4 55.6667 27.2 56.4C28 57.1333 29.3333 57.5 31.2 57.5H37.3ZM63.925 25.5C65.925 22.4333 68.425 20.0333 71.425 18.3C74.425 16.5 77.7583 15.6 81.425 15.6V33.7H76.725C72.4583 33.7 69.2583 34.6333 67.125 36.5C64.9917 38.3 63.925 41.5 63.925 46.1V72H46.825V16.2H63.925V25.5ZM114.698 56L126.798 16.2H144.998L125.198 72H104.098L84.2984 16.2H102.598L114.698 56ZM177.296 56L189.396 16.2H207.596L187.796 72H166.696L146.896 16.2H165.196L177.296 56ZM231.894 25.5C233.894 22.4333 236.394 20.0333 239.394 18.3C242.394 16.5 245.727 15.6 249.394 15.6V33.7H244.694C240.427 33.7 237.227 34.6333 235.094 36.5C232.96 38.3 231.894 41.5 231.894 46.1V72H214.794V16.2H231.894V25.5Z" fill="#200F33"/>
</svg>
